<?xml version="1.0" encoding="UTF-8"?>
<svg xmlns="http://www.w3.org/2000/svg" xmlns:xlink="http://www.w3.org/1999/xlink" width="30px" height="30px" viewBox="0 0 30 30" version="1.1">
<defs>
<filter id="alpha" filterUnits="objectBoundingBox" x="0%" y="0%" width="100%" height="100%">
  <feColorMatrix type="matrix" in="SourceGraphic" values="0 0 0 0 1 0 0 0 0 1 0 0 0 0 1 0 0 0 1 0"/>
</filter>
<mask id="mask0">
  <g filter="url(#alpha)">
<rect x="0" y="0" width="30" height="30" style="fill:rgb(0%,0%,0%);fill-opacity:0.2;stroke:none;"/>
  </g>
</mask>
<clipPath id="clip1">
  <rect x="0" y="0" width="30" height="30"/>
</clipPath>
<g id="surface5" clip-path="url(#clip1)">
<path style=" stroke:none;fill-rule:nonzero;fill:rgb(100%,100%,100%);fill-opacity:1;" d="M 28.820312 9.160156 C 28.066406 7.375 26.984375 5.769531 25.605469 4.394531 C 24.230469 3.015625 22.625 1.933594 20.839844 1.179688 C 18.988281 0.398438 17.023438 0 15 0 C 14.789062 0 14.582031 0.00390625 14.375 0.0117188 C 16.179688 0.0859375 17.929688 0.476562 19.589844 1.179688 C 21.375 1.933594 22.980469 3.015625 24.355469 4.394531 C 25.734375 5.769531 26.816406 7.375 27.570312 9.160156 C 28.355469 11.011719 28.75 12.976562 28.75 15 C 28.75 17.023438 28.355469 18.988281 27.570312 20.839844 C 26.816406 22.625 25.734375 24.230469 24.355469 25.605469 C 22.980469 26.984375 21.375 28.066406 19.589844 28.820312 C 17.929688 29.523438 16.179688 29.914062 14.375 29.988281 C 14.582031 29.996094 14.789062 30 15 30 C 17.023438 30 18.988281 29.601562 20.839844 28.820312 C 22.625 28.066406 24.230469 26.984375 25.605469 25.605469 C 26.984375 24.230469 28.066406 22.625 28.820312 20.839844 C 29.601562 18.988281 30 17.023438 30 15 C 30 12.976562 29.601562 11.011719 28.820312 9.160156 Z M 28.820312 9.160156 "/>
</g>
<mask id="mask1">
  <g filter="url(#alpha)">
<rect x="0" y="0" width="30" height="30" style="fill:rgb(0%,0%,0%);fill-opacity:0.101961;stroke:none;"/>
  </g>
</mask>
<clipPath id="clip2">
  <rect x="0" y="0" width="30" height="30"/>
</clipPath>
<g id="surface8" clip-path="url(#clip2)">
<path style=" stroke:none;fill-rule:nonzero;fill:rgb(0%,0%,0%);fill-opacity:1;" d="M 1.179688 20.839844 C 1.933594 22.625 3.015625 24.230469 4.394531 25.605469 C 5.769531 26.984375 7.375 28.066406 9.160156 28.820312 C 11.011719 29.601562 12.976562 30 15 30 C 15.210938 30 15.417969 29.996094 15.625 29.988281 C 13.820312 29.914062 12.070312 29.523438 10.410156 28.820312 C 8.625 28.066406 7.019531 26.984375 5.644531 25.605469 C 4.265625 24.230469 3.183594 22.625 2.429688 20.839844 C 1.648438 18.988281 1.25 17.023438 1.25 15 C 1.25 12.976562 1.648438 11.011719 2.429688 9.160156 C 3.183594 7.375 4.265625 5.769531 5.644531 4.394531 C 7.019531 3.015625 8.625 1.933594 10.410156 1.179688 C 12.070312 0.476562 13.820312 0.0859375 15.625 0.0117188 C 15.417969 0.00390625 15.210938 0 15 0 C 12.976562 0 11.011719 0.398438 9.160156 1.179688 C 7.375 1.933594 5.769531 3.015625 4.394531 4.394531 C 3.015625 5.769531 1.933594 7.375 1.179688 9.160156 C 0.398438 11.011719 0 12.976562 0 15 C 0 17.023438 0.398438 18.988281 1.179688 20.839844 Z M 1.179688 20.839844 "/>
</g>
</defs>
<g id="surface1">
<path style=" stroke:none;fill-rule:nonzero;fill:rgb(93.333333%,12.54902%,20.784314%);fill-opacity:1;" d="M 28.820312 9.160156 C 28.066406 7.375 26.984375 5.769531 25.605469 4.394531 C 24.230469 3.015625 22.625 1.933594 20.839844 1.179688 C 18.988281 0.398438 17.023438 0 15 0 C 12.976562 0 11.011719 0.398438 9.160156 1.179688 C 7.375 1.933594 5.769531 3.015625 4.394531 4.394531 C 3.015625 5.769531 1.933594 7.375 1.179688 9.160156 C 0.398438 11.011719 0 12.976562 0 15 C 0 17.023438 0.398438 18.988281 1.179688 20.839844 C 1.933594 22.625 3.015625 24.230469 4.394531 25.605469 C 5.769531 26.984375 7.375 28.066406 9.160156 28.820312 C 11.011719 29.601562 12.976562 30 15 30 C 17.023438 30 18.988281 29.601562 20.839844 28.820312 C 22.625 28.066406 24.230469 26.984375 25.605469 25.605469 C 26.984375 24.230469 28.066406 22.625 28.820312 20.839844 C 29.601562 18.988281 30 17.023438 30 15 C 30 12.976562 29.601562 11.011719 28.820312 9.160156 Z M 28.820312 9.160156 "/>
<path style=" stroke:none;fill-rule:nonzero;fill:rgb(90.196078%,91.372549%,92.941176%);fill-opacity:1;" d="M 0.0078125 15.421875 C 0.0585938 17.296875 0.449219 19.117188 1.179688 20.839844 C 1.933594 22.625 3.015625 24.230469 4.394531 25.605469 C 5.769531 26.984375 7.375 28.066406 9.160156 28.820312 C 11.011719 29.601562 12.976562 30 15 30 C 17.023438 30 18.988281 29.601562 20.839844 28.820312 C 22.625 28.066406 24.230469 26.984375 25.605469 25.605469 C 26.984375 24.230469 28.066406 22.625 28.820312 20.839844 C 29.550781 19.117188 29.941406 17.296875 29.996094 15.421875 Z M 0.0078125 15.421875 "/>
<path style=" stroke:none;fill-rule:nonzero;fill:rgb(26.27451%,29.019608%,32.941176%);fill-opacity:1;" d="M 29.929688 16.476562 C 29.976562 15.988281 30 15.496094 30 15 C 30 14.441406 29.96875 13.890625 29.910156 13.34375 C 29.164062 13.457031 28.09375 13.605469 26.746094 13.753906 C 24.1875 14.039062 20.070312 14.375 15 14.375 C 9.929688 14.375 5.8125 14.039062 3.253906 13.753906 C 1.90625 13.605469 0.835938 13.457031 0.0898438 13.34375 C 0.03125 13.890625 0 14.441406 0 15 C 0 15.496094 0.0234375 15.988281 0.0703125 16.476562 C 2.503906 16.84375 7.867188 17.5 15 17.5 C 22.132812 17.5 27.496094 16.84375 29.929688 16.476562 Z M 29.929688 16.476562 "/>
<path style=" stroke:none;fill-rule:nonzero;fill:rgb(90.196078%,91.372549%,92.941176%);fill-opacity:1;" d="M 18.125 15.625 C 18.125 17.351562 16.726562 18.75 15 18.75 C 13.273438 18.75 11.875 17.351562 11.875 15.625 C 11.875 13.898438 13.273438 12.5 15 12.5 C 16.726562 12.5 18.125 13.898438 18.125 15.625 Z M 18.125 15.625 "/>
<path style=" stroke:none;fill-rule:nonzero;fill:rgb(26.27451%,29.019608%,32.941176%);fill-opacity:1;" d="M 15 10 C 11.898438 10 9.375 12.523438 9.375 15.625 C 9.375 18.726562 11.898438 21.25 15 21.25 C 18.101562 21.25 20.625 18.726562 20.625 15.625 C 20.625 12.523438 18.101562 10 15 10 Z M 15 18.125 C 13.621094 18.125 12.5 17.003906 12.5 15.625 C 12.5 14.246094 13.621094 13.125 15 13.125 C 16.378906 13.125 17.5 14.246094 17.5 15.625 C 17.5 17.003906 16.378906 18.125 15 18.125 Z M 15 18.125 "/>
<use xlink:href="#surface5" mask="url(#mask0)"/>
<use xlink:href="#surface8" mask="url(#mask1)"/>
</g>
</svg>
